<mxfile host="65bd71144e" modified="2020-11-19T15:51:52.700Z" agent="5.0 (Windows NT 10.0; Win64; x64) AppleWebKit/537.36 (KHTML, like Gecko) Code/1.51.1 Chrome/83.0.4103.122 Electron/9.3.3 Safari/537.36" version="13.6.5" etag="nqW9VC-NjEwobVYy6Ze7">
    <diagram id="MWsHgbzdL7L2tIr4-yXz" name="Page-1">
        <mxGraphModel dx="837" dy="478" grid="1" gridSize="10" guides="1" tooltips="1" connect="1" arrows="1" fold="1" page="1" pageScale="1" pageWidth="850" pageHeight="1100" math="0" shadow="0">
            <root>
                <mxCell id="0"/>
                <mxCell id="1" parent="0"/>
                <mxCell id="32" value="Text" style="text;html=1;strokeColor=none;fillColor=none;align=center;verticalAlign=middle;whiteSpace=wrap;rounded=0;" vertex="1" parent="1">
                    <mxGeometry x="350" y="480" width="40" height="20" as="geometry"/>
                </mxCell>
                <mxCell id="33" value="DOCTOR" style="text;html=1;strokeColor=none;fillColor=none;align=center;verticalAlign=middle;whiteSpace=wrap;rounded=0;" vertex="1" parent="1">
                    <mxGeometry x="150" y="400" width="40" height="20" as="geometry"/>
                </mxCell>
                <mxCell id="34" value="" style="shape=table;html=1;whiteSpace=wrap;startSize=0;container=1;collapsible=0;childLayout=tableLayout;" vertex="1" parent="1">
                    <mxGeometry x="150" y="440" width="550" height="260" as="geometry"/>
                </mxCell>
                <mxCell id="35" value="" style="shape=partialRectangle;html=1;whiteSpace=wrap;collapsible=0;dropTarget=0;pointerEvents=0;fillColor=none;top=0;left=0;bottom=0;right=0;points=[[0,0.5],[1,0.5]];portConstraint=eastwest;" vertex="1" parent="34">
                    <mxGeometry width="550" height="43" as="geometry"/>
                </mxCell>
                <mxCell id="36" value="" style="shape=partialRectangle;html=1;whiteSpace=wrap;connectable=0;overflow=hidden;fillColor=none;top=0;left=0;bottom=0;right=0;" vertex="1" parent="35">
                    <mxGeometry width="184" height="43" as="geometry"/>
                </mxCell>
                <mxCell id="37" value="DATA TYPE" style="shape=partialRectangle;html=1;whiteSpace=wrap;connectable=0;overflow=hidden;fillColor=none;top=0;left=0;bottom=0;right=0;" vertex="1" parent="35">
                    <mxGeometry x="184" width="182" height="43" as="geometry"/>
                </mxCell>
                <mxCell id="38" value="SIZE" style="shape=partialRectangle;html=1;whiteSpace=wrap;connectable=0;overflow=hidden;fillColor=none;top=0;left=0;bottom=0;right=0;" vertex="1" parent="35">
                    <mxGeometry x="366" width="184" height="43" as="geometry"/>
                </mxCell>
                <mxCell id="39" value="" style="shape=partialRectangle;html=1;whiteSpace=wrap;collapsible=0;dropTarget=0;pointerEvents=0;fillColor=none;top=0;left=0;bottom=0;right=0;points=[[0,0.5],[1,0.5]];portConstraint=eastwest;" vertex="1" parent="34">
                    <mxGeometry y="43" width="550" height="44" as="geometry"/>
                </mxCell>
                <mxCell id="40" value="ID" style="shape=partialRectangle;html=1;whiteSpace=wrap;connectable=0;overflow=hidden;fillColor=none;top=0;left=0;bottom=0;right=0;" vertex="1" parent="39">
                    <mxGeometry width="184" height="44" as="geometry"/>
                </mxCell>
                <mxCell id="41" value="INT" style="shape=partialRectangle;html=1;whiteSpace=wrap;connectable=0;overflow=hidden;fillColor=none;top=0;left=0;bottom=0;right=0;" vertex="1" parent="39">
                    <mxGeometry x="184" width="182" height="44" as="geometry"/>
                </mxCell>
                <mxCell id="42" value="150" style="shape=partialRectangle;html=1;whiteSpace=wrap;connectable=0;overflow=hidden;fillColor=none;top=0;left=0;bottom=0;right=0;" vertex="1" parent="39">
                    <mxGeometry x="366" width="184" height="44" as="geometry"/>
                </mxCell>
                <mxCell id="43" value="" style="shape=partialRectangle;html=1;whiteSpace=wrap;collapsible=0;dropTarget=0;pointerEvents=0;fillColor=none;top=0;left=0;bottom=0;right=0;points=[[0,0.5],[1,0.5]];portConstraint=eastwest;" vertex="1" parent="34">
                    <mxGeometry y="87" width="550" height="43" as="geometry"/>
                </mxCell>
                <mxCell id="44" value="DOCTOR_NAME" style="shape=partialRectangle;html=1;whiteSpace=wrap;connectable=0;overflow=hidden;fillColor=none;top=0;left=0;bottom=0;right=0;" vertex="1" parent="43">
                    <mxGeometry width="184" height="43" as="geometry"/>
                </mxCell>
                <mxCell id="45" value="VARACHAR" style="shape=partialRectangle;html=1;whiteSpace=wrap;connectable=0;overflow=hidden;fillColor=none;top=0;left=0;bottom=0;right=0;" vertex="1" parent="43">
                    <mxGeometry x="184" width="182" height="43" as="geometry"/>
                </mxCell>
                <mxCell id="46" value="250" style="shape=partialRectangle;html=1;whiteSpace=wrap;connectable=0;overflow=hidden;fillColor=none;top=0;left=0;bottom=0;right=0;" vertex="1" parent="43">
                    <mxGeometry x="366" width="184" height="43" as="geometry"/>
                </mxCell>
                <mxCell id="47" value="" style="shape=partialRectangle;html=1;whiteSpace=wrap;collapsible=0;dropTarget=0;pointerEvents=0;fillColor=none;top=0;left=0;bottom=0;right=0;points=[[0,0.5],[1,0.5]];portConstraint=eastwest;" vertex="1" parent="34">
                    <mxGeometry y="130" width="550" height="43" as="geometry"/>
                </mxCell>
                <mxCell id="48" value="SPECIALIZATION" style="shape=partialRectangle;html=1;whiteSpace=wrap;connectable=0;overflow=hidden;fillColor=none;top=0;left=0;bottom=0;right=0;" vertex="1" parent="47">
                    <mxGeometry width="184" height="43" as="geometry"/>
                </mxCell>
                <mxCell id="49" value="VARCHAR" style="shape=partialRectangle;html=1;whiteSpace=wrap;connectable=0;overflow=hidden;fillColor=none;top=0;left=0;bottom=0;right=0;" vertex="1" parent="47">
                    <mxGeometry x="184" width="182" height="43" as="geometry"/>
                </mxCell>
                <mxCell id="50" value="250" style="shape=partialRectangle;html=1;whiteSpace=wrap;connectable=0;overflow=hidden;fillColor=none;top=0;left=0;bottom=0;right=0;" vertex="1" parent="47">
                    <mxGeometry x="366" width="184" height="43" as="geometry"/>
                </mxCell>
                <mxCell id="51" value="" style="shape=partialRectangle;html=1;whiteSpace=wrap;collapsible=0;dropTarget=0;pointerEvents=0;fillColor=none;top=0;left=0;bottom=0;right=0;points=[[0,0.5],[1,0.5]];portConstraint=eastwest;" vertex="1" parent="34">
                    <mxGeometry y="173" width="550" height="44" as="geometry"/>
                </mxCell>
                <mxCell id="52" value="ABOUT" style="shape=partialRectangle;html=1;whiteSpace=wrap;connectable=0;overflow=hidden;fillColor=none;top=0;left=0;bottom=0;right=0;" vertex="1" parent="51">
                    <mxGeometry width="184" height="44" as="geometry"/>
                </mxCell>
                <mxCell id="53" value="VARACHAR" style="shape=partialRectangle;html=1;whiteSpace=wrap;connectable=0;overflow=hidden;fillColor=none;top=0;left=0;bottom=0;right=0;" vertex="1" parent="51">
                    <mxGeometry x="184" width="182" height="44" as="geometry"/>
                </mxCell>
                <mxCell id="54" value="400" style="shape=partialRectangle;html=1;whiteSpace=wrap;connectable=0;overflow=hidden;fillColor=none;top=0;left=0;bottom=0;right=0;" vertex="1" parent="51">
                    <mxGeometry x="366" width="184" height="44" as="geometry"/>
                </mxCell>
                <mxCell id="55" value="" style="shape=partialRectangle;html=1;whiteSpace=wrap;collapsible=0;dropTarget=0;pointerEvents=0;fillColor=none;top=0;left=0;bottom=0;right=0;points=[[0,0.5],[1,0.5]];portConstraint=eastwest;" vertex="1" parent="34">
                    <mxGeometry y="217" width="550" height="43" as="geometry"/>
                </mxCell>
                <mxCell id="56" value="PROFILE_IMAGE" style="shape=partialRectangle;html=1;whiteSpace=wrap;connectable=0;overflow=hidden;fillColor=none;top=0;left=0;bottom=0;right=0;" vertex="1" parent="55">
                    <mxGeometry width="184" height="43" as="geometry"/>
                </mxCell>
                <mxCell id="57" value="VARCHAR" style="shape=partialRectangle;html=1;whiteSpace=wrap;connectable=0;overflow=hidden;fillColor=none;top=0;left=0;bottom=0;right=0;" vertex="1" parent="55">
                    <mxGeometry x="184" width="182" height="43" as="geometry"/>
                </mxCell>
                <mxCell id="58" value="500" style="shape=partialRectangle;html=1;whiteSpace=wrap;connectable=0;overflow=hidden;fillColor=none;top=0;left=0;bottom=0;right=0;" vertex="1" parent="55">
                    <mxGeometry x="366" width="184" height="43" as="geometry"/>
                </mxCell>
                <mxCell id="59" value="" style="group" vertex="1" connectable="0" parent="1">
                    <mxGeometry x="120" y="170" width="650" height="569" as="geometry"/>
                </mxCell>
                <mxCell id="60" value="" style="shape=table;html=1;whiteSpace=wrap;startSize=0;container=1;collapsible=0;childLayout=tableLayout;" vertex="1" parent="59">
                    <mxGeometry y="50" width="650" height="519" as="geometry"/>
                </mxCell>
                <mxCell id="61" value="" style="shape=partialRectangle;html=1;whiteSpace=wrap;collapsible=0;dropTarget=0;pointerEvents=0;fillColor=none;top=0;left=0;bottom=0;right=0;points=[[0,0.5],[1,0.5]];portConstraint=eastwest;" vertex="1" parent="60">
                    <mxGeometry width="650" height="53" as="geometry"/>
                </mxCell>
                <mxCell id="62" value="" style="shape=partialRectangle;html=1;whiteSpace=wrap;connectable=0;overflow=hidden;fillColor=none;top=0;left=0;bottom=0;right=0;" vertex="1" parent="61">
                    <mxGeometry width="217" height="53" as="geometry"/>
                </mxCell>
                <mxCell id="63" value="DATA TYPE" style="shape=partialRectangle;html=1;whiteSpace=wrap;connectable=0;overflow=hidden;fillColor=none;top=0;left=0;bottom=0;right=0;" vertex="1" parent="61">
                    <mxGeometry x="217" width="216" height="53" as="geometry"/>
                </mxCell>
                <mxCell id="64" value="SIZE" style="shape=partialRectangle;html=1;whiteSpace=wrap;connectable=0;overflow=hidden;fillColor=none;top=0;left=0;bottom=0;right=0;" vertex="1" parent="61">
                    <mxGeometry x="433" width="217" height="53" as="geometry"/>
                </mxCell>
                <mxCell id="65" value="" style="shape=partialRectangle;html=1;whiteSpace=wrap;collapsible=0;dropTarget=0;pointerEvents=0;fillColor=none;top=0;left=0;bottom=0;right=0;points=[[0,0.5],[1,0.5]];portConstraint=eastwest;" vertex="1" parent="60">
                    <mxGeometry y="53" width="650" height="47" as="geometry"/>
                </mxCell>
                <mxCell id="66" value="ID" style="shape=partialRectangle;html=1;whiteSpace=wrap;connectable=0;overflow=hidden;fillColor=none;top=0;left=0;bottom=0;right=0;" vertex="1" parent="65">
                    <mxGeometry width="217" height="47" as="geometry"/>
                </mxCell>
                <mxCell id="67" value="INT" style="shape=partialRectangle;html=1;whiteSpace=wrap;connectable=0;overflow=hidden;fillColor=none;top=0;left=0;bottom=0;right=0;" vertex="1" parent="65">
                    <mxGeometry x="217" width="216" height="47" as="geometry"/>
                </mxCell>
                <mxCell id="68" value="200" style="shape=partialRectangle;html=1;whiteSpace=wrap;connectable=0;overflow=hidden;fillColor=none;top=0;left=0;bottom=0;right=0;" vertex="1" parent="65">
                    <mxGeometry x="433" width="217" height="47" as="geometry"/>
                </mxCell>
                <mxCell id="69" value="" style="shape=partialRectangle;html=1;whiteSpace=wrap;collapsible=0;dropTarget=0;pointerEvents=0;fillColor=none;top=0;left=0;bottom=0;right=0;points=[[0,0.5],[1,0.5]];portConstraint=eastwest;" vertex="1" parent="60">
                    <mxGeometry y="100" width="650" height="53" as="geometry"/>
                </mxCell>
                <mxCell id="70" value="PATIENT_NAME" style="shape=partialRectangle;html=1;whiteSpace=wrap;connectable=0;overflow=hidden;fillColor=none;top=0;left=0;bottom=0;right=0;" vertex="1" parent="69">
                    <mxGeometry width="217" height="53" as="geometry"/>
                </mxCell>
                <mxCell id="71" value="VARCHAR" style="shape=partialRectangle;html=1;whiteSpace=wrap;connectable=0;overflow=hidden;fillColor=none;top=0;left=0;bottom=0;right=0;" vertex="1" parent="69">
                    <mxGeometry x="217" width="216" height="53" as="geometry"/>
                </mxCell>
                <mxCell id="72" value="250" style="shape=partialRectangle;html=1;whiteSpace=wrap;connectable=0;overflow=hidden;fillColor=none;top=0;left=0;bottom=0;right=0;" vertex="1" parent="69">
                    <mxGeometry x="433" width="217" height="53" as="geometry"/>
                </mxCell>
                <mxCell id="73" value="" style="shape=partialRectangle;html=1;whiteSpace=wrap;collapsible=0;dropTarget=0;pointerEvents=0;fillColor=none;top=0;left=0;bottom=0;right=0;points=[[0,0.5],[1,0.5]];portConstraint=eastwest;" vertex="1" parent="60">
                    <mxGeometry y="153" width="650" height="52" as="geometry"/>
                </mxCell>
                <mxCell id="74" value="GENOTYPE" style="shape=partialRectangle;html=1;whiteSpace=wrap;connectable=0;overflow=hidden;fillColor=none;top=0;left=0;bottom=0;right=0;" vertex="1" parent="73">
                    <mxGeometry width="217" height="52" as="geometry"/>
                </mxCell>
                <mxCell id="75" value="VARCHAR" style="shape=partialRectangle;html=1;whiteSpace=wrap;connectable=0;overflow=hidden;fillColor=none;top=0;left=0;bottom=0;right=0;" vertex="1" parent="73">
                    <mxGeometry x="217" width="216" height="52" as="geometry"/>
                </mxCell>
                <mxCell id="76" value="250" style="shape=partialRectangle;html=1;whiteSpace=wrap;connectable=0;overflow=hidden;fillColor=none;top=0;left=0;bottom=0;right=0;" vertex="1" parent="73">
                    <mxGeometry x="433" width="217" height="52" as="geometry"/>
                </mxCell>
                <mxCell id="77" value="" style="shape=partialRectangle;html=1;whiteSpace=wrap;collapsible=0;dropTarget=0;pointerEvents=0;fillColor=none;top=0;left=0;bottom=0;right=0;points=[[0,0.5],[1,0.5]];portConstraint=eastwest;" vertex="1" parent="60">
                    <mxGeometry y="205" width="650" height="53" as="geometry"/>
                </mxCell>
                <mxCell id="78" value="BMI" style="shape=partialRectangle;html=1;whiteSpace=wrap;connectable=0;overflow=hidden;fillColor=none;top=0;left=0;bottom=0;right=0;" vertex="1" parent="77">
                    <mxGeometry width="217" height="53" as="geometry"/>
                </mxCell>
                <mxCell id="79" value="VARCHAR" style="shape=partialRectangle;html=1;whiteSpace=wrap;connectable=0;overflow=hidden;fillColor=none;top=0;left=0;bottom=0;right=0;" vertex="1" parent="77">
                    <mxGeometry x="217" width="216" height="53" as="geometry"/>
                </mxCell>
                <mxCell id="80" value="250" style="shape=partialRectangle;html=1;whiteSpace=wrap;connectable=0;overflow=hidden;fillColor=none;top=0;left=0;bottom=0;right=0;" vertex="1" parent="77">
                    <mxGeometry x="433" width="217" height="53" as="geometry"/>
                </mxCell>
                <mxCell id="81" value="" style="shape=partialRectangle;html=1;whiteSpace=wrap;collapsible=0;dropTarget=0;pointerEvents=0;fillColor=none;top=0;left=0;bottom=0;right=0;points=[[0,0.5],[1,0.5]];portConstraint=eastwest;" vertex="1" parent="60">
                    <mxGeometry y="258" width="650" height="52" as="geometry"/>
                </mxCell>
                <mxCell id="82" value="BLOOD GROUP" style="shape=partialRectangle;html=1;whiteSpace=wrap;connectable=0;overflow=hidden;fillColor=none;top=0;left=0;bottom=0;right=0;" vertex="1" parent="81">
                    <mxGeometry width="217" height="52" as="geometry"/>
                </mxCell>
                <mxCell id="83" value="VARCHAR" style="shape=partialRectangle;html=1;whiteSpace=wrap;connectable=0;overflow=hidden;fillColor=none;top=0;left=0;bottom=0;right=0;" vertex="1" parent="81">
                    <mxGeometry x="217" width="216" height="52" as="geometry"/>
                </mxCell>
                <mxCell id="84" value="250" style="shape=partialRectangle;html=1;whiteSpace=wrap;connectable=0;overflow=hidden;fillColor=none;top=0;left=0;bottom=0;right=0;" vertex="1" parent="81">
                    <mxGeometry x="433" width="217" height="52" as="geometry"/>
                </mxCell>
                <mxCell id="85" value="" style="shape=partialRectangle;html=1;whiteSpace=wrap;collapsible=0;dropTarget=0;pointerEvents=0;fillColor=none;top=0;left=0;bottom=0;right=0;points=[[0,0.5],[1,0.5]];portConstraint=eastwest;" vertex="1" parent="60">
                    <mxGeometry y="310" width="650" height="53" as="geometry"/>
                </mxCell>
                <mxCell id="86" value="WEIGHT" style="shape=partialRectangle;html=1;whiteSpace=wrap;connectable=0;overflow=hidden;fillColor=none;top=0;left=0;bottom=0;right=0;" vertex="1" parent="85">
                    <mxGeometry width="217" height="53" as="geometry"/>
                </mxCell>
                <mxCell id="87" value="FLOATING POINT" style="shape=partialRectangle;html=1;whiteSpace=wrap;connectable=0;overflow=hidden;fillColor=none;top=0;left=0;bottom=0;right=0;" vertex="1" parent="85">
                    <mxGeometry x="217" width="216" height="53" as="geometry"/>
                </mxCell>
                <mxCell id="88" value="200" style="shape=partialRectangle;html=1;whiteSpace=wrap;connectable=0;overflow=hidden;fillColor=none;top=0;left=0;bottom=0;right=0;" vertex="1" parent="85">
                    <mxGeometry x="433" width="217" height="53" as="geometry"/>
                </mxCell>
                <mxCell id="89" style="shape=partialRectangle;html=1;whiteSpace=wrap;collapsible=0;dropTarget=0;pointerEvents=0;fillColor=none;top=0;left=0;bottom=0;right=0;points=[[0,0.5],[1,0.5]];portConstraint=eastwest;" vertex="1" parent="60">
                    <mxGeometry y="363" width="650" height="52" as="geometry"/>
                </mxCell>
                <mxCell id="90" value="AGE" style="shape=partialRectangle;html=1;whiteSpace=wrap;connectable=0;overflow=hidden;fillColor=none;top=0;left=0;bottom=0;right=0;" vertex="1" parent="89">
                    <mxGeometry width="217" height="52" as="geometry"/>
                </mxCell>
                <mxCell id="91" value="INT" style="shape=partialRectangle;html=1;whiteSpace=wrap;connectable=0;overflow=hidden;fillColor=none;top=0;left=0;bottom=0;right=0;" vertex="1" parent="89">
                    <mxGeometry x="217" width="216" height="52" as="geometry"/>
                </mxCell>
                <mxCell id="92" value="150" style="shape=partialRectangle;html=1;whiteSpace=wrap;connectable=0;overflow=hidden;fillColor=none;top=0;left=0;bottom=0;right=0;" vertex="1" parent="89">
                    <mxGeometry x="433" width="217" height="52" as="geometry"/>
                </mxCell>
                <mxCell id="93" value="" style="shape=partialRectangle;html=1;whiteSpace=wrap;collapsible=0;dropTarget=0;pointerEvents=0;fillColor=none;top=0;left=0;bottom=0;right=0;points=[[0,0.5],[1,0.5]];portConstraint=eastwest;" vertex="1" parent="60">
                    <mxGeometry y="415" width="650" height="52" as="geometry"/>
                </mxCell>
                <mxCell id="94" value="HEIGHT&lt;table&gt;&lt;tbody&gt;&lt;tr&gt;&lt;td&gt;&lt;br&gt;&lt;/td&gt;&lt;td&gt;&lt;br&gt;&lt;/td&gt;&lt;td&gt;&lt;br&gt;&lt;/td&gt;&lt;/tr&gt;&lt;/tbody&gt;&lt;/table&gt;" style="shape=partialRectangle;html=1;whiteSpace=wrap;connectable=0;overflow=hidden;fillColor=none;top=0;left=0;bottom=0;right=0;" vertex="1" parent="93">
                    <mxGeometry width="217" height="52" as="geometry"/>
                </mxCell>
                <mxCell id="95" value="FLOATING POINT" style="shape=partialRectangle;html=1;whiteSpace=wrap;connectable=0;overflow=hidden;fillColor=none;top=0;left=0;bottom=0;right=0;" vertex="1" parent="93">
                    <mxGeometry x="217" width="216" height="52" as="geometry"/>
                </mxCell>
                <mxCell id="96" value="200" style="shape=partialRectangle;html=1;whiteSpace=wrap;connectable=0;overflow=hidden;fillColor=none;top=0;left=0;bottom=0;right=0;" vertex="1" parent="93">
                    <mxGeometry x="433" width="217" height="52" as="geometry"/>
                </mxCell>
                <mxCell id="97" style="shape=partialRectangle;html=1;whiteSpace=wrap;collapsible=0;dropTarget=0;pointerEvents=0;fillColor=none;top=0;left=0;bottom=0;right=0;points=[[0,0.5],[1,0.5]];portConstraint=eastwest;" vertex="1" parent="60">
                    <mxGeometry y="467" width="650" height="52" as="geometry"/>
                </mxCell>
                <mxCell id="98" value="DATE" style="shape=partialRectangle;html=1;whiteSpace=wrap;connectable=0;overflow=hidden;fillColor=none;top=0;left=0;bottom=0;right=0;" vertex="1" parent="97">
                    <mxGeometry width="217" height="52" as="geometry"/>
                </mxCell>
                <mxCell id="99" value="TIMESTAMP" style="shape=partialRectangle;html=1;whiteSpace=wrap;connectable=0;overflow=hidden;fillColor=none;top=0;left=0;bottom=0;right=0;" vertex="1" parent="97">
                    <mxGeometry x="217" width="216" height="52" as="geometry"/>
                </mxCell>
                <mxCell id="100" style="shape=partialRectangle;html=1;whiteSpace=wrap;connectable=0;overflow=hidden;fillColor=none;top=0;left=0;bottom=0;right=0;" vertex="1" parent="97">
                    <mxGeometry x="433" width="217" height="52" as="geometry"/>
                </mxCell>
                <mxCell id="101" value="Patient (Pregnant Women)" style="text;html=1;strokeColor=none;fillColor=none;align=center;verticalAlign=middle;whiteSpace=wrap;rounded=0;" vertex="1" parent="59">
                    <mxGeometry x="130" width="40" height="20" as="geometry"/>
                </mxCell>
            </root>
        </mxGraphModel>
    </diagram>
</mxfile>